#N canvas 553 86 707 474 12;
#X obj 251 141 tabwrite~ waveform;
#X obj 168 201 *~;
#X floatatom 192 141 5 0 100 0 - - - 0;
#X obj 192 164 dbtorms;
#X obj 168 225 dac~;
#N canvas 130 130 450 250 (subpatch) 0;
#X array waveform 64 float 4;
#X coords 0 1 63 -1 200 140 1;
#X restore 419 85 graph;
#X obj 168 108 randwave~;
#X obj 231 24 bng 19 250 50 0 empty empty empty 0 -10 0 12 #fcfcfc #000000 #000000;
#X msg 250 69 generate 2048 16;
#X obj 169 69 osc~ 440;
#X connect 1 0 4 0;
#X connect 1 0 4 1;
#X connect 2 0 3 0;
#X connect 3 0 1 1;
#X connect 6 0 0 0;
#X connect 6 0 1 0;
#X connect 7 0 0 0;
#X connect 7 0 8 0;
#X connect 8 0 6 1;
#X connect 9 0 6 0;
